HIERARCHY
ROOT hip
{
	OFFSET 0.000000 0.000000 0.000000
	CHANNELS 6 Xposition Yposition Zposition Xrotation Zrotation Yrotation 
	JOINT abdomen
	{
		OFFSET 0.000000 3.422050 0.000000
		CHANNELS 3 Xrotation Zrotation Yrotation 
		JOINT chest
		{
			OFFSET 0.000000 8.486693 -0.684411
			CHANNELS 3 Xrotation Zrotation Yrotation 
			JOINT neck
			{
				OFFSET 0.000000 10.266162 -0.273764
				CHANNELS 3 Xrotation Zrotation Yrotation 
				JOINT head
				{
					OFFSET 0.000000 3.148285 0.000000
					CHANNELS 3 Xrotation Zrotation Yrotation 
					End Site
					{
						OFFSET 0.000000 3.148289 0.000000
					}
				}
			}
			JOINT lCollar
			{
				OFFSET 3.422053 6.707223 -0.821293
				CHANNELS 3 Yrotation Zrotation Xrotation 
				JOINT lShldr
				{
					OFFSET 3.285171 0.000000 0.000000
					CHANNELS 3 Zrotation Yrotation Xrotation 
					JOINT lForeArm
					{
						OFFSET 10.129278 0.000000 0.000000
						CHANNELS 3 Yrotation Zrotation Xrotation 
						JOINT lHand
						{
							OFFSET 8.486692 0.000000 0.000000
							CHANNELS 3 Zrotation Yrotation Xrotation 
							End Site
							{
								OFFSET 4.106464 0.000000 0.000000
							}
						}
					}
				}
			}
			JOINT rCollar
			{
				OFFSET -3.558935 6.707223 -0.821293
				CHANNELS 3 Yrotation Zrotation Xrotation 
				JOINT rShldr
				{
					OFFSET -3.148289 0.000000 0.000000
					CHANNELS 3 Zrotation Yrotation Xrotation 
					JOINT rForeArm
					{
						OFFSET -10.266159 0.000000 0.000000
						CHANNELS 3 Yrotation Zrotation Xrotation 
						JOINT rHand
						{
							OFFSET -8.349810 0.000000 0.000000
							CHANNELS 3 Zrotation Yrotation Xrotation 
							End Site
							{
								OFFSET -4.106464 0.000000 0.000000
							}
						}
					}
				}
			}
		}
	}
	JOINT lThigh
	{
		OFFSET 5.338403 -1.642589 1.368821
		CHANNELS 3 Xrotation Zrotation Yrotation 
		JOINT lShin
		{
			OFFSET -2.053232 -20.121670 0.000000
			CHANNELS 3 Xrotation Zrotation Yrotation 
			JOINT lFoot
			{
				OFFSET 0.000000 -19.300380 -1.231939
				CHANNELS 3 Xrotation Yrotation Zrotation 
				End Site
				{
					OFFSET 0.000000 -2.463878 4.653993
				}
			}
		}
	}
	JOINT rThigh
	{
		OFFSET -5.338403 -1.642589 1.368821
		CHANNELS 3 Xrotation Zrotation Yrotation 
		JOINT rShin
		{
			OFFSET 2.053232 -20.121670 0.000000
			CHANNELS 3 Xrotation Zrotation Yrotation 
			JOINT rFoot
			{
				OFFSET 0.000000 -19.300380 -1.231939
				CHANNELS 3 Xrotation Yrotation Zrotation 
				End Site
				{
					OFFSET 0.000000 -2.463878 4.653993
				}
			}
		}
	}
}
MOTION
Frames: 11
Frame Time: 0.033264
-2.976697 20.433950 3.533900 35.125103 0.000000 -180.000000 21.341993 -2.120001 -1.135703 15.054688 -2.355164 -0.634425 -21.272741 13.998385 -20.000912 -34.900307 8.281017 18.187935 -24.973499 -11.266921 -25.696825 -1.977194 -20.743248 -23.234859 -41.036098 -20.402966 -7.750199 -51.657997 4.220766 -14.029195 22.126118 6.143155 -22.934387 1.040345 40.810120 -21.456022 54.885513 18.634825 -9.981746 22.903137 19.607500 -25.441967 -102.628036 49.737137 -39.217457 112.998306 1.264751 -45.207867 56.530804 31.367111 -14.777497 -104.542389 -50.170235 40.586967 120.017288 -1.741750 44.677811 47.700642 -35.778210 10.291125 
-2.976697 20.495228 3.496353 34.749577 0.000000 -180.000000 20.765081 -2.120063 -1.135749 14.729360 -2.355183 -0.634391 -20.879866 13.998395 -20.000927 -34.734211 8.214520 18.112524 -25.123720 -11.683531 -25.385328 -1.977194 -20.743248 -23.234861 -40.767857 -20.318367 -7.658289 -51.706310 4.345595 -13.672456 22.579634 6.487072 -22.154127 1.040345 40.810120 -21.456022 53.909790 18.454815 -9.678453 23.098202 20.114061 -24.722670 -102.293800 49.963360 -39.015984 112.841476 1.252509 -45.217045 56.028851 31.362782 -14.762662 -103.970924 -50.251366 40.138531 119.741333 -1.719431 44.698986 47.493862 -35.755455 10.519979 
-2.976697 20.556503 3.458806 34.374081 0.000000 -180.000000 20.188229 -2.120126 -1.135794 14.404037 -2.355201 -0.634357 -20.486774 13.998402 -20.000938 -34.567963 8.148204 18.036894 -25.271833 -12.100893 -25.074495 -1.977194 -20.743248 -23.234859 -40.499931 -20.233383 -7.566860 -51.753838 4.470716 -13.315778 23.028582 6.836981 -21.376328 1.040345 40.810120 -21.456022 52.936375 18.269999 -9.378836 23.300636 20.618162 -23.999332 -101.956749 50.188805 -38.811497 112.684624 1.240239 -45.226170 55.526958 31.358337 -14.747872 -103.397560 -50.329639 39.688137 119.465393 -1.697008 44.720051 47.287029 -35.733372 10.748854 
-2.976697 20.617781 3.421258 33.998600 0.000000 -180.000000 19.611460 -2.120188 -1.135839 14.078738 -2.355220 -0.634322 -20.093491 13.998413 -20.000954 -34.401566 8.082070 17.961040 -25.417833 -12.518972 -24.764315 -1.977194 -20.743248 -23.234861 -40.232300 -20.147999 -7.475908 -51.800606 4.596121 -12.959168 23.472832 7.192737 -20.601074 1.040345 40.810120 -21.456022 51.965427 18.080456 -9.083002 23.510492 21.119663 -23.271912 -101.616875 50.413471 -38.603977 112.527809 1.227947 -45.235279 55.025150 31.353786 -14.733133 -102.822342 -50.405022 39.235825 119.189484 -1.674483 44.741016 47.080170 -35.711964 10.977750 
-2.976697 20.679056 3.383711 33.623154 0.000000 -180.000000 19.034811 -2.120251 -1.135882 13.753458 -2.355237 -0.634288 -19.700008 13.998422 -20.000965 -34.235027 8.016120 17.884968 -25.561731 -12.937739 -24.454781 -1.977194 -20.743248 -23.234859 -39.964966 -20.062216 -7.385432 -51.846577 4.721803 -12.602629 23.912281 7.554193 -19.828480 1.040345 40.810120 -21.456022 50.997101 17.886292 -8.791068 23.727793 21.618397 -22.540340 -101.274109 50.637321 -38.393387 112.370979 1.215626 -45.244347 54.523441 31.349121 -14.718441 -102.245369 -50.477478 38.781677 118.913582 -1.651860 44.761860 46.873272 -35.691231 11.206658 
-2.976697 20.740332 3.346164 33.247753 0.000000 -180.000000 18.458309 -2.120315 -1.135926 13.428201 -2.355255 -0.634253 -19.306351 13.998433 -20.000980 -34.068317 7.950351 17.808668 -25.703508 -13.357157 -24.145868 -1.977194 -20.743248 -23.234859 -39.697937 -19.976042 -7.295439 -51.891777 4.847752 -12.246166 24.346809 7.921197 -19.058626 1.040345 40.810120 -21.456022 50.031544 17.687601 -8.503133 23.952589 22.114239 -21.804588 -100.928406 50.860340 -38.179672 112.214165 1.203284 -45.253380 54.021847 31.344347 -14.703801 -101.666710 -50.547024 38.325779 118.637695 -1.629141 44.782585 46.666359 -35.671165 11.435571 
-2.976697 20.801609 3.308617 32.872391 0.000000 -180.000000 17.881983 -2.120379 -1.135968 13.102979 -2.355273 -0.634219 -18.912516 13.998444 -20.000992 -33.901470 7.884769 17.732151 -25.843172 -13.777195 -23.837566 -1.977194 -20.743248 -23.234859 -39.431225 -19.889484 -7.205929 -51.936188 4.973964 -11.889784 24.776331 8.293603 -18.291607 1.040345 40.810120 -21.456022 49.068893 17.484491 -8.219296 24.184914 22.607031 -21.064604 -100.579781 51.082523 -37.962830 112.057358 1.190917 -45.262386 53.520405 31.339470 -14.689219 -101.086403 -50.613598 37.868179 118.361862 -1.606322 44.803215 46.459423 -35.651775 11.664484 
-2.976697 20.862885 3.271070 32.497089 0.000000 -180.000000 17.305853 -2.120443 -1.136010 12.777789 -2.355290 -0.634184 -18.518517 13.998450 -20.001003 -33.734470 7.819374 17.655409 -25.980707 -14.197815 -23.529865 -1.977194 -20.743248 -23.234859 -39.164825 -19.802544 -7.116906 -51.979813 5.100427 -11.533486 25.200724 8.671248 -17.527500 1.040345 40.810120 -21.456022 48.109303 17.277071 -7.939654 24.424776 23.096617 -20.320341 -100.228165 51.303844 -37.742794 111.900551 1.178521 -45.271358 53.019108 31.334484 -14.674687 -100.504562 -50.677219 37.408970 118.086075 -1.583407 44.823734 46.252480 -35.633064 11.893391 
-2.976697 20.924162 3.233523 32.121849 0.000000 -180.000000 16.729963 -2.120507 -1.136052 12.452646 -2.355308 -0.634149 -18.124363 13.998459 -20.001015 -33.567322 7.754167 17.578449 -26.116123 -14.618987 -23.222742 -1.977194 -20.743248 -23.234859 -38.898727 -19.715218 -7.028366 -52.022648 5.227135 -11.177278 25.619923 9.053982 -16.766390 1.040345 40.810120 -21.456022 47.152897 17.065443 -7.664296 24.672232 23.582863 -19.571756 -99.873497 51.524269 -37.519539 111.743752 1.166106 -45.280285 52.517990 31.329386 -14.660215 -99.921288 -50.737888 36.948254 117.810303 -1.560392 44.844135 46.045544 -35.615032 12.122288 
-2.976697 20.985437 3.195976 31.746689 0.000000 -180.000000 16.154337 -2.120573 -1.136092 12.127547 -2.355325 -0.634114 -17.730066 13.998469 -20.001030 -33.400021 7.689148 17.501268 -26.249403 -15.040672 -22.916182 -1.977194 -20.743248 -23.234859 -38.632946 -19.627520 -6.940316 -52.064690 5.354080 -10.821163 26.033815 9.441635 -16.008348 1.040345 40.810120 -21.456022 46.199791 16.849720 -7.393306 24.927305 24.065624 -18.818832 -99.515816 51.743828 -37.293053 111.586967 1.153666 -45.289188 52.017075 31.324186 -14.645797 -99.336639 -50.795547 36.486084 117.534576 -1.537285 44.864422 45.838581 -35.597664 12.351157 
-2.976697 21.046713 3.158429 31.371620 0.000000 -180.000000 15.579000 -2.120639 -1.136132 11.802502 -2.355341 -0.634079 -17.335634 13.998478 -20.001041 -33.232571 7.624319 17.423868 -26.380548 -15.462845 -22.610168 -1.977194 -20.743248 -23.234859 -38.367485 -19.539446 -6.852757 -52.105938 5.481256 -10.465151 26.442326 9.834048 -15.253444 1.040345 40.810120 -21.456022 45.250141 16.630024 -7.126765 25.189995 24.544737 -18.061506 -99.155022 51.962444 -37.063263 111.430183 1.141203 -45.298050 51.516373 31.318880 -14.631444 -98.750671 -50.850220 36.022545 117.258896 -1.514084 44.884594 45.631645 -35.580975 12.580006 
